<?xml version="1.0" encoding="UTF-8" standalone="no"?>
<!-- Created with Inkscape (http://www.inkscape.org/) -->

<svg
   width="150mm"
   height="150mm"
   viewBox="0 0 150 150"
   version="1.1"
   id="svg5"
   inkscape:version="1.2.2 (b0a8486541, 2022-12-01)"
   sodipodi:docname="dysk-homard-pattes-logo.svg"
   xmlns:inkscape="http://www.inkscape.org/namespaces/inkscape"
   xmlns:sodipodi="http://sodipodi.sourceforge.net/DTD/sodipodi-0.dtd"
   xmlns="http://www.w3.org/2000/svg"
   xmlns:svg="http://www.w3.org/2000/svg"
   xmlns:rdf="http://www.w3.org/1999/02/22-rdf-syntax-ns#"
   xmlns:cc="http://creativecommons.org/ns#"
   xmlns:dc="http://purl.org/dc/elements/1.1/">
  <title
     id="title2319">dysk de homard, le logo</title>
  <sodipodi:namedview
     id="namedview7"
     pagecolor="#ffffff"
     bordercolor="#000000"
     borderopacity="0.25"
     inkscape:showpageshadow="2"
     inkscape:pageopacity="0.0"
     inkscape:pagecheckerboard="true"
     inkscape:deskcolor="#d1d1d1"
     inkscape:document-units="mm"
     showgrid="false"
     inkscape:zoom="0.98603159"
     inkscape:cx="334.16779"
     inkscape:cy="317.94113"
     inkscape:window-width="1837"
     inkscape:window-height="1254"
     inkscape:window-x="3118"
     inkscape:window-y="182"
     inkscape:window-maximized="0"
     inkscape:current-layer="layer1" />
  <defs
     id="defs2" />
  <g
     inkscape:label="Calque 1"
     inkscape:groupmode="layer"
     id="layer1"
     transform="translate(-55.165278,-69.972597)">
    <path
       style="fill:#1835f6;fill-opacity:1;stroke:#1835f6;stroke-width:0.301887;stroke-linecap:round;stroke-linejoin:round;stroke-dasharray:none;stroke-opacity:1"
       id="path386-5-6"
       sodipodi:type="arc"
       sodipodi:cx="130.07422"
       sodipodi:cy="-110.44427"
       sodipodi:rx="5.4549356"
       sodipodi:ry="7.1442852"
       sodipodi:start="0"
       sodipodi:end="3.1415927"
       sodipodi:arc-type="slice"
       d="m 135.52915,-110.44427 a 5.4549356,7.1442852 0 0 1 -2.72746,6.18714 5.4549356,7.1442852 0 0 1 -5.45494,0 5.4549356,7.1442852 0 0 1 -2.72747,-6.18714 h 5.45494 z"
       transform="scale(1,-1)" />
    <path
       style="fill:none;fill-opacity:1;stroke:#b7410e;stroke-width:1.9;stroke-linecap:round;stroke-linejoin:round;stroke-dasharray:none;stroke-opacity:1"
       d="m 99.788734,96.376665 6.495126,3.992125 6.33024,2.62442 12.03583,6.74104"
       id="path2479"
       sodipodi:nodetypes="cccc" />
    <path
       style="fill:none;fill-opacity:1;stroke:#b7410e;stroke-width:1.9;stroke-linecap:round;stroke-linejoin:round;stroke-dasharray:none;stroke-opacity:1"
       d="m 96.902457,104.90367 6.637963,-2.11886 8.25188,2.55078 10.29725,6.11706"
       id="path2479-2"
       sodipodi:nodetypes="cccc" />
    <path
       style="fill:none;fill-opacity:1;stroke:#b7410e;stroke-width:1.9;stroke-linecap:round;stroke-linejoin:round;stroke-dasharray:none;stroke-opacity:1"
       d="m 96.747359,108.79818 6.413931,-1.19917 6.6706,2.34095 11.85687,8.73384"
       id="path2479-9"
       sodipodi:nodetypes="cccc" />
    <path
       style="fill:none;fill-opacity:1;stroke:#b7410e;stroke-width:1.9;stroke-linecap:round;stroke-linejoin:round;stroke-dasharray:none;stroke-opacity:1"
       d="m 90.993369,114.56826 7.482746,-1.92699 8.320985,1.46681 10.22814,8.41581"
       id="path2479-1"
       sodipodi:nodetypes="cccc" />
    <path
       style="fill:none;fill-opacity:1;stroke:#b7410e;stroke-width:1.9;stroke-linecap:round;stroke-linejoin:round;stroke-dasharray:none;stroke-opacity:1"
       d="m 160.0769,95.630687 -6.06118,4.548013 -5.52463,2.83576 -13.27538,5.97381"
       id="path2479-27"
       sodipodi:nodetypes="cccc" />
    <path
       style="fill:none;fill-opacity:1;stroke:#b7410e;stroke-width:1.9;stroke-linecap:round;stroke-linejoin:round;stroke-dasharray:none;stroke-opacity:1"
       d="m 160.56697,104.57269 -6.35843,-0.94635 -8.25188,2.55078 -10.29725,6.11706"
       id="path2479-2-0"
       sodipodi:nodetypes="cccc" />
    <path
       style="fill:none;fill-opacity:1;stroke:#b7410e;stroke-width:1.9;stroke-linecap:round;stroke-linejoin:round;stroke-dasharray:none;stroke-opacity:1"
       d="m 162.41521,109.88484 -7.82754,-1.97347 -6.6706,2.34095 -11.85687,8.73384"
       id="path2479-9-9"
       sodipodi:nodetypes="cccc" />
    <path
       style="fill:none;fill-opacity:1;stroke:#b7410e;stroke-width:1.9;stroke-linecap:round;stroke-linejoin:round;stroke-dasharray:none;stroke-opacity:1"
       d="m 165.27002,114.76631 -5.99718,-2.34185 -8.32098,1.4668 -10.22814,8.41581"
       id="path2479-1-3"
       sodipodi:nodetypes="cccc" />
    <circle
       style="fill:#1835f6;fill-opacity:1;stroke:#1835f6;stroke-width:2.5;stroke-linecap:round;stroke-linejoin:round;stroke-dasharray:none;stroke-opacity:1"
       id="path386"
       r="41.357964"
       cy="144.73499"
       cx="130.12445" />
    <path
       style="fill:#b7410e;fill-opacity:1;stroke:#b7410e;stroke-width:1.27607;stroke-linecap:round;stroke-linejoin:round"
       d="m 124.51389,103.53041 c -55.842696,11.9241 -52.008538,96.62472 -1.91256,109.43785 -5.85507,-14.11936 -9.48766,-13.13403 -11.1476,-20.04809 -0.6067,-2.52703 0.45831,-1.93825 6.71953,4.45726 3.26029,3.33022 5.626,11.19381 5.37881,8.81607 -0.69736,-6.70802 1.33132,-9.11445 -8.52269,-21.72527 -5.07028,-6.48878 -10.7718,-6.55986 -15.950168,-10.01195 -25.957426,-17.30427 -10.515771,-58.6691 17.370758,-68.68144 0.65303,-0.23446 -1.94951,-5.06586 1.76914,-8.191126 0.94066,-0.79056 -2.24398,-1.94851 -2.25135,-4.693226 -0.006,-2.367845 3.16759,-6.36261 3.73719,-7.040521 12.52298,-14.904376 45.95592,-17.911458 12.14919,18.202613"
       id="path236"
       sodipodi:nodetypes="ccsssssssssc" />
    <path
       style="fill:#b7410e;fill-opacity:1;stroke:#b7410e;stroke-width:1.27607;stroke-linecap:round;stroke-linejoin:round"
       d="m 136.28325,103.53042 c 55.84256,11.92409 52.0084,96.62471 1.91255,109.43784 5.85504,-14.11936 9.4876,-13.13403 11.14754,-20.04809 0.6067,-2.52703 -0.45831,-1.93825 -6.71949,4.45726 -3.26027,3.33022 -5.62597,11.19381 -5.37878,8.81607 0.69736,-6.70802 -1.33132,-9.11445 8.52264,-21.72527 5.07025,-6.48878 10.77174,-6.55986 15.95008,-10.01195 25.95743,-17.30427 10.51577,-58.6691 -17.37066,-68.68144 -0.65303,-0.23446 1.9495,-5.06586 -1.76913,-8.19113 -0.94066,-0.79056 2.24397,-1.94851 2.25133,-4.69322 0.006,-2.36785 -3.16757,-6.362612 -3.73717,-7.040523 C 128.56923,70.945591 95.136234,67.938509 128.94302,104.05258"
       id="path236-7"
       sodipodi:nodetypes="ccsssssssssc" />
    <path
       style="fill:none;stroke:#1835f6;stroke-width:2;stroke-linecap:round;stroke-linejoin:round;stroke-dasharray:none;stroke-opacity:1"
       id="path386-5"
       sodipodi:type="arc"
       sodipodi:cx="130.12445"
       sodipodi:cy="-144.73456"
       sodipodi:rx="41.357964"
       sodipodi:ry="41.357964"
       sodipodi:start="0"
       sodipodi:end="3.1415927"
       sodipodi:arc-type="slice"
       d="m 171.48241,-144.73456 a 41.357964,41.357964 0 0 1 -20.67898,35.81705 41.357964,41.357964 0 0 1 -41.35796,0 41.357964,41.357964 0 0 1 -20.678983,-35.81705 h 41.357963 z"
       transform="scale(1,-1)" />
    <circle
       style="fill:#4965f2;fill-opacity:1;stroke:#2a54e8;stroke-width:5.62594;stroke-linecap:round;stroke-linejoin:round;stroke-dasharray:none;stroke-opacity:1"
       id="path386-3"
       r="28.358049"
       cy="144.73499"
       cx="130.12445" />
    <circle
       style="fill:#4965f2;fill-opacity:1;stroke:#2a54e8;stroke-width:5;stroke-linecap:round;stroke-linejoin:round;stroke-dasharray:none;stroke-opacity:1"
       id="path386-3-5"
       r="13.289965"
       cy="144.73499"
       cx="130.12445" />
    <g
       aria-label="dysk"
       id="text1474"
       style="font-size:31.75px;fill:#1835f6;stroke:#2a54e8;stroke-width:2;stroke-linecap:round;stroke-linejoin:round">
      <path
         d="m 106.77704,138.76636 v -9.39478 h 2.85254 v 24.12256 h -2.85254 v -2.60449 q -0.89917,1.55029 -2.27893,2.30993 -1.36426,0.74415 -3.28662,0.74415 -3.147098,0 -5.131473,-2.51148 -1.968872,-2.51147 -1.968872,-6.60425 0,-4.09277 1.968872,-6.60425 1.984375,-2.51147 5.131473,-2.51147 1.92236,0 3.28662,0.75964 1.37976,0.74414 2.27893,2.29444 z m -9.720338,6.06164 q 0,3.1471 1.286743,4.94544 1.302246,1.78283 3.565675,1.78283 2.26343,0 3.56567,-1.78283 1.30225,-1.79834 1.30225,-4.94544 0,-3.14709 -1.30225,-4.92993 -1.30224,-1.79834 -3.56567,-1.79834 -2.263429,0 -3.565675,1.79834 -1.286743,1.78284 -1.286743,4.92993 z"
         style="fill:#ffffff;stroke:#ffffff"
         id="path2336" />
      <path
         d="m 122.72955,155.10645 q -1.20923,3.10058 -2.35644,4.04626 -1.14722,0.94568 -3.06958,0.94568 h -2.27893 v -2.38745 h 1.67431 q 1.17823,0 1.82935,-0.55811 0.65112,-0.5581 1.44177,-2.6355 l 0.5116,-1.30224 -7.02283,-17.08423 h 3.02307 l 5.42603,13.58057 5.42602,-13.58057 h 3.02307 z"
         style="fill:#ffffff;stroke:#ffffff"
         id="path2338" />
      <path
         d="m 145.36383,136.64246 v 2.69751 q -1.20923,-0.62012 -2.51147,-0.93018 -1.30225,-0.31006 -2.69751,-0.31006 -2.12391,0 -3.19361,0.65112 -1.0542,0.65113 -1.0542,1.95337 0,0.99219 0.75965,1.5658 0.75964,0.5581 3.05407,1.0697 l 0.97669,0.21704 q 3.03857,0.65113 4.30981,1.84485 1.28675,1.17822 1.28675,3.30213 0,2.41845 -1.92237,3.82922 -1.90686,1.41077 -5.25549,1.41077 -1.39526,0 -2.91455,-0.27906 -1.50379,-0.26355 -3.1781,-0.80615 v -2.94556 q 1.5813,0.82166 3.11609,1.24024 1.53479,0.40307 3.03857,0.40307 2.01538,0 3.10059,-0.68212 1.0852,-0.69764 1.0852,-1.95337 0,-1.16272 -0.79065,-1.78284 -0.77514,-0.62012 -3.42614,-1.19373 l -0.99219,-0.23254 q -2.651,-0.55811 -3.82923,-1.70532 -1.17822,-1.16272 -1.17822,-3.1781 0,-2.44947 1.73633,-3.78272 1.73633,-1.33325 4.92993,-1.33325 1.5813,0 2.97656,0.23254 1.39527,0.23255 2.57349,0.69764 z"
         style="fill:#ffffff;stroke:#ffffff"
         id="path2340" />
      <path
         d="m 150.72784,129.37158 h 2.86805 v 14.24719 l 8.5111,-7.48791 h 3.64319 l -9.20874,8.12353 9.59632,9.23975 h -3.72071 l -8.82116,-8.4801 v 8.4801 h -2.86805 z"
         style="fill:#ffffff;stroke:#ffffff"
         id="path2342" />
    </g>
  </g>
  <metadata
     id="metadata2317">
    <rdf:RDF>
      <cc:Work
         rdf:about="">
        <dc:title>dysk de homard, le logo</dc:title>
        <dc:creator>
          <cc:Agent>
            <dc:title>dystroy</dc:title>
          </cc:Agent>
        </dc:creator>
      </cc:Work>
    </rdf:RDF>
  </metadata>
</svg>
